<?xml version="1.0" encoding="utf-8"?>
<!-- Generator: Adobe Illustrator 23.0.2, SVG Export Plug-In . SVG Version: 6.00 Build 0)  -->
<svg version="1.1" id="Capa_1" xmlns="http://www.w3.org/2000/svg" xmlns:xlink="http://www.w3.org/1999/xlink" x="0px" y="0px"
	 viewBox="0 0 512 512" style="enable-background:new 0 0 512 512;" xml:space="preserve">
<style type="text/css">
	.st0{fill:#FAA520;}
</style>
<g>
	<g>
		<path class="st0" d="M256,211c-41.4,0-75,33.6-75,75s33.6,75,75,75s75-33.6,75-75S297.4,211,256,211z M256,331
			c-24.8,0-45-20.2-45-45s20.2-45,45-45s45,20.2,45,45S280.8,331,256,331z"/>
	</g>
</g>
<g>
	<g>
		<path class="st0" d="M286,271h-15v-15c0-8.3-6.7-15-15-15s-15,6.7-15,15v30c0,8.3,6.7,15,15,15h30c8.3,0,15-6.7,15-15
			S294.3,271,286,271z"/>
	</g>
</g>
<g>
	<g>
		<path class="st0" d="M376,151h-15v-45c0-4-1.7-7.9-4.3-10.5l-90-91c-5.9-5.9-15.5-5.9-21.3,0l-90,91c-2.7,2.7-4.3,6.6-4.3,10.5v45
			h-15c-8.3,0-15,6.7-15,15v240c0,8.3,6.7,15,15,15h15v76c0,8.3,6.7,15,15,15h180c8.3,0,15-6.7,15-15v-76h15c8.3,0,15-6.7,15-15V166
			C391,157.7,384.3,151,376,151z M256,36.3L310.1,91H201.9L256,36.3z M181,121h150v30H181V121z M211,482h-30v-61h30V482z M271,482
			h-30v-61h30V482z M331,482h-30v-61h30V482z M361,391H151V181h210V391z"/>
	</g>
</g>
</svg>
