<?xml version="1.0" encoding="utf-8"?>
<!-- Generator: Adobe Illustrator 23.0.2, SVG Export Plug-In . SVG Version: 6.00 Build 0)  -->
<svg version="1.1" id="Capa_1" xmlns="http://www.w3.org/2000/svg" xmlns:xlink="http://www.w3.org/1999/xlink" x="0px" y="0px"
	 viewBox="0 0 24 24" style="enable-background:new 0 0 24 24;" xml:space="preserve">
<style type="text/css">
	.st0{fill:#FAA520;}
</style>
<path class="st0" d="M11,11V8h1.2c0.9,0,1.2,0.3,1.8,0.9c0.5,0.5,2,2.1,2,2.1H11z M10,8H7.8C7.1,8,6.7,8.2,6.4,8.6
	c-0.3,0.3-0.9,0.9-1.5,1.7c1.7,0.6,4,0.7,5.1,0.7V8z M24,13.2c0-2.8-2-3.4-2.8-3.6c-1.1-0.3-1.7-0.5-3-0.8c-0.5-0.5-2.1-2-2.4-2.4
	l-0.1-0.1C15,5.6,14.3,5,12.5,5H4.9C4.3,5,4.1,5.5,4.6,5.9C4.1,6.4,2.7,7.6,2.3,8.1C0.9,9.5,0,10.5,0,12.7C0,15.2,1.4,17,3.2,17
	c0.4,1.2,1.5,2,2.8,2s2.4-0.8,2.8-2h6.4c0.4,1.2,1.5,2,2.8,2s2.4-0.8,2.8-2C22.8,16.9,24,15.5,24,13.2z M6,17.2
	c-0.7,0-1.2-0.5-1.2-1.2s0.5-1.2,1.2-1.2s1.2,0.5,1.2,1.2C7.2,16.7,6.7,17.2,6,17.2z M18,17.2c-0.7,0-1.2-0.5-1.2-1.2
	s0.5-1.2,1.2-1.2s1.2,0.5,1.2,1.2C19.2,16.7,18.7,17.2,18,17.2z M20.8,15c-0.4-1.1-1.5-2-2.8-2s-2.4,0.9-2.8,2.1H8.8
	C8.4,13.9,7.3,13,6,13s-2.4,0.9-2.8,2C2.6,14.9,2,14,2,12.7s0.5-1.9,1.7-3.2C4.4,8.7,5,8.2,6,7.4C6.3,7.1,6.8,7,7.2,7h5.2
	c1.2,0,1.6,0.4,2.1,0.9c0.4,0.4,2.7,2.7,2.7,2.7s2.3,0.6,3.5,0.9c0.8,0.2,1.4,0.5,1.4,1.7C22,14.4,21.6,15,20.8,15z"/>
</svg>
