<?xml version="1.0" encoding="utf-8"?>
<!-- Generator: Adobe Illustrator 23.0.2, SVG Export Plug-In . SVG Version: 6.00 Build 0)  -->
<svg version="1.1" id="Layer_1" xmlns="http://www.w3.org/2000/svg" xmlns:xlink="http://www.w3.org/1999/xlink" x="0px" y="0px"
	 viewBox="0 0 512 512" style="enable-background:new 0 0 512 512;" xml:space="preserve">
<style type="text/css">
	.st0{fill:#908F8F;}
</style>
<g>
	<g>
		<g>
			<path class="st0" d="M231.1,61.7c-4.4,0-8,3.6-8,8v5.2c0,4.4,3.6,8,8,8s8-3.6,8-8v-5.2C239.1,65.3,235.5,61.7,231.1,61.7z"/>
			<path class="st0" d="M261.7,55.7c-4.4,0-8,3.6-8,8v11.7c0,4.4,3.6,8,8,8s8-3.6,8-8V63.7C269.7,59.3,266.1,55.7,261.7,55.7z"/>
			<path class="st0" d="M292.2,61.7c-4.4,0-8,3.6-8,8v5.2c0,4.4,3.6,8,8,8s8-3.6,8-8v-5.2C300.2,65.3,296.6,61.7,292.2,61.7z"/>
			<path class="st0" d="M339.8,352.9l81-81c6.3-6.3,6.3-16.5,0-22.7l-52.9-52.9c-6.3-6.3-16.5-6.3-22.7,0l-13.7,13.7
				c-6.4-11-18.4-18.3-31.8-18.3h-3.4v-6.1c0-3.6,1.6-7,4.4-9.2c13.7-11,21.9-27.1,23-44.5c1.9-2.9,2.9-6.3,2.9-9.9V98.6
				c3.6-2.8,6-7.2,6-12.2V74.7c0-9.9-5.4-19-14-23.7c-2.6-1.4-5.2-2.7-7.8-3.9l11.7-13.9c2.8-3.4,2.4-8.4-1-11.3
				c-3.4-2.8-8.4-2.4-11.3,1l-15.3,18.3c-8.3-2.4-16.8-4-25.3-4.5V8c0-4.4-3.6-8-8-8s-8,3.6-8,8v28.6c-8.5,0.6-17,2.1-25.3,4.5
				l-15.3-18.3c-2.8-3.4-7.9-3.8-11.3-1c-3.4,2.8-3.8,7.9-1,11.3l11.7,13.9c-2.6,1.2-5.2,2.5-7.8,3.9c-8.7,4.7-14,13.8-14,23.7v11.7
				c0,4.9,2.3,9.3,6,12.2v23.3c0,4.1,1.3,7.8,3.6,10.9l-0.6,0.1c1.3,16.8,9.7,32.6,22.8,43.3c2.9,2.3,4.5,5.7,4.5,9.3v6.1h-33
				c-14.2,0-26.4-9.2-30.6-22.1h0.4c8,0,14.5-6.5,14.5-14.5v-12.3c0-6.6-4.5-12.2-10.5-13.9c2-4.8,3.1-9.9,3.1-15.2
				c0-16.9-8.6-48-27.1-61.2c-3.5-2.5-8.1-3.1-12.1-1.6c-4.1,1.5-7.2,4.9-8.3,9.1c-2.6,10-7.6,14.7-13.4,20.2
				c-7.1,6.7-15.1,14.3-16,30.6c-0.3,6.3,0.8,12.5,3.3,18.1c-6.2,1.7-10.7,7.3-10.7,14V155c0,8,6.5,14.5,14.5,14.5h2.6
				c2.3,20.8,11.7,40.1,26.9,54.9c15.2,14.8,34.7,23.7,55.5,25.5v175.6h-24.3c-10.8,0-19.6,8.8-19.6,19.6v47.2
				c0,10.8,8.8,19.6,19.6,19.6h199.1c10.8,0,19.6-8.8,19.6-19.6v-47.2c0-10.8-8.8-19.6-19.6-19.6h-24.3v-70.1
				C337.7,354.7,338.8,353.9,339.8,352.9z M310.6,121.9c0,1.1-0.6,1.7-1.2,2c-0.5,0.3-1.4,0.5-2.3,0l-31.4-19.3
				c-1.2-0.7-2.2-1.7-3.1-2.8h38.1L310.6,121.9L310.6,121.9z M206.7,74.7c0-4,2.2-7.7,5.7-9.7c30.8-16.9,67.7-16.9,98.5,0
				c3.5,1.9,5.7,5.6,5.7,9.7v11.1H206.7V74.7z M213.9,123.9c-0.5-0.3-1.2-0.9-1.2-2v-20h38.1c-0.9,1.1-1.9,2-3.1,2.8l-31.4,19.3
				C215.2,124.5,214.4,124.2,213.9,123.9z M217.1,140.1c2.6-0.3,5.1-1.2,7.5-2.6l31.4-19.3c2.1-1.3,4-2.8,5.7-4.6
				c1.7,1.7,3.6,3.3,5.7,4.6l31.4,19.3c2.3,1.4,4.9,2.3,7.5,2.6c-2.5,9.2-7.9,17.6-15.6,23.7c-6.6,5.3-10.3,13.2-10.3,21.7v6.1H243
				v-6.1c0-8.4-3.8-16.4-10.4-21.7C225,157.7,219.6,149.3,217.1,140.1z M109.9,111.5c0.5-9.9,4.7-13.9,11-19.8
				c5.7-5.3,12.6-11.8,16.6-23.6c10.8,10.6,17.3,32.7,17.3,45.5c0,5.4-2,10.6-5.4,14.6h-33.8C111.6,123.6,109.6,117.7,109.9,111.5z
				 M102.5,153.5v-9.3h59.7v9.3H102.5z M141.6,213c-12.1-11.8-19.7-27-21.9-43.4h4.6v6.8c0,4.4,3.6,8,8,8s8-3.6,8-8v-6.8h6.4
				c4.7,21.9,24.1,38.1,47.2,38.1h105.8c9.1,0,17,5.9,19.7,14.3l-55.3,55.3c-3,3-4.7,7.1-4.7,11.4c0,1.4,0.2,2.9,0.6,4.2
				c-20.7,10.7-41.6,17.1-58.1,20.9v-71.4c0-4.4-3.6-8-8-8C174.3,234.3,155.7,226.7,141.6,213z M201.9,386v-55.9
				c18.6-4,43.4-11.4,68-24.4l20.2,20.2C258.7,358.8,223.1,377.2,201.9,386z M301.4,337.2l15.7,15.7c1,1,2.2,1.9,3.4,2.6v70.1H201.9
				v-22.3C238.7,389.2,274.3,365.5,301.4,337.2z M360.8,441.6c2,0,3.6,1.6,3.6,3.6v47.2c0,2-1.6,3.6-3.6,3.6H161.6
				c-2,0-3.6-1.6-3.6-3.6v-47.2c0-2,1.6-3.6,3.6-3.6H360.8z M328.5,341.6c0,0-0.1,0-0.1,0l-52.9-53l81.1-81l52.9,53L328.5,341.6z"/>
			<path class="st0" d="M337.6,265c-3.1-3.1-8.2-3.1-11.3,0c-3.1,3.1-3.1,8.2,0,11.3l16,16c1.6,1.6,3.6,2.3,5.7,2.3s4.1-0.8,5.7-2.3
				c3.1-3.1,3.1-8.2,0-11.3L337.6,265z"/>
			<path class="st0" d="M373.3,270.1L347,243.7c-3.1-3.1-8.2-3.1-11.3,0c-3.1,3.1-3.1,8.2,0,11.3l26.4,26.3c1.6,1.6,3.6,2.3,5.7,2.3
				s4.1-0.8,5.7-2.3C376.5,278.3,376.5,273.2,373.3,270.1z"/>
		</g>
	</g>
</g>
</svg>
